<svg width="118" height="40" viewBox="0 0 118 40" fill="none" xmlns="http://www.w3.org/2000/svg">
<path d="M6.831 12.596V18.074H16.302V22.298H6.831V27.776H17.358V32H2.376V8.372H17.358V12.596H6.831ZM18.5656 15.83H23.4826L27.5086 26.126H27.7396L31.7986 15.83H36.6826L29.7196 32H25.4626L18.5656 15.83ZM53.4793 28.106C52.7313 29.426 51.7193 30.493 50.4433 31.307C49.1893 32.121 47.6493 32.528 45.8233 32.528C44.5913 32.528 43.4473 32.319 42.3913 31.901C41.3573 31.461 40.4553 30.856 39.6853 30.086C38.9153 29.316 38.3103 28.414 37.8703 27.38C37.4523 26.324 37.2433 25.169 37.2433 23.915C37.2433 22.749 37.4523 21.649 37.8703 20.615C38.2883 19.559 38.8713 18.646 39.6193 17.876C40.3673 17.084 41.2473 16.457 42.2593 15.995C43.2933 15.533 44.4263 15.302 45.6583 15.302C46.9563 15.302 48.1113 15.522 49.1233 15.962C50.1353 16.38 50.9823 16.974 51.6643 17.744C52.3463 18.492 52.8633 19.383 53.2153 20.417C53.5673 21.451 53.7433 22.573 53.7433 23.783C53.7433 23.937 53.7433 24.069 53.7433 24.179C53.7213 24.311 53.7103 24.432 53.7103 24.542C53.6883 24.652 53.6773 24.773 53.6773 24.905H41.5003C41.5883 25.565 41.7643 26.137 42.0283 26.621C42.3143 27.083 42.6553 27.479 43.0513 27.809C43.4693 28.117 43.9203 28.348 44.4043 28.502C44.8883 28.634 45.3833 28.7 45.8893 28.7C46.8793 28.7 47.6933 28.48 48.3313 28.04C48.9913 27.578 49.5083 27.006 49.8823 26.324L53.4793 28.106ZM49.5523 21.836C49.5303 21.55 49.4313 21.231 49.2553 20.879C49.1013 20.527 48.8593 20.197 48.5293 19.889C48.2213 19.581 47.8253 19.328 47.3413 19.13C46.8793 18.932 46.3183 18.833 45.6583 18.833C44.7343 18.833 43.9203 19.097 43.2163 19.625C42.5123 20.153 42.0173 20.89 41.7313 21.836H49.5523ZM60.5633 17.942H60.8273C61.3333 17.128 62.0153 16.49 62.8733 16.028C63.7313 15.544 64.7103 15.302 65.8103 15.302C66.8223 15.302 67.7133 15.467 68.4833 15.797C69.2533 16.127 69.8803 16.6 70.3643 17.216C70.8703 17.81 71.2443 18.536 71.4863 19.394C71.7503 20.23 71.8823 21.165 71.8823 22.199V32H67.5593V22.727C67.5593 21.561 67.2953 20.703 66.7673 20.153C66.2613 19.581 65.5133 19.295 64.5233 19.295C63.9293 19.295 63.4013 19.427 62.9393 19.691C62.4993 19.933 62.1143 20.274 61.7843 20.714C61.4763 21.132 61.2343 21.638 61.0583 22.232C60.9043 22.804 60.8273 23.42 60.8273 24.08V32H56.5043V15.83H60.5633V17.942ZM76.3976 19.526H73.5596V15.83H76.3976V10.88H80.7206V15.83H84.6806V19.526H80.7206V25.796C80.7206 26.17 80.7536 26.522 80.8196 26.852C80.9076 27.16 81.0616 27.424 81.2816 27.644C81.5896 27.996 82.0296 28.172 82.6016 28.172C82.9756 28.172 83.2726 28.139 83.4926 28.073C83.7126 27.985 83.9216 27.875 84.1196 27.743L85.3406 31.538C84.8346 31.78 84.2846 31.956 83.6906 32.066C83.1186 32.198 82.4806 32.264 81.7766 32.264C80.9626 32.264 80.2256 32.143 79.5656 31.901C78.9276 31.637 78.3886 31.285 77.9486 30.845C76.9146 29.855 76.3976 28.447 76.3976 26.621V19.526Z" fill="white"/>
<path d="M100.145 15.0664H109.309V32H108.263C105.385 32 103.315 31.4964 102.054 30.4893C100.781 29.471 100.145 27.7887 100.145 25.4424V15.0664ZM88.1582 23.7324C88.1582 22.515 88.3187 21.3861 88.6396 20.3457C88.9606 19.2943 89.4587 18.3757 90.1338 17.5898C91.5947 15.9076 93.6865 15.0664 96.4092 15.0664H97.6875V32H96.8242C94.0352 32 91.877 31.2363 90.3496 29.709C88.8887 28.248 88.1582 26.2559 88.1582 23.7324Z" fill="url(#paint0_linear_5_113)"/>
<g clip-path="url(#clip0_5_113)">
<path d="M114 7.75C112.208 7.75 110.75 9.20801 110.75 11C110.75 12.792 112.208 14.25 114 14.25C115.792 14.25 117.25 12.792 117.25 11C117.25 9.20801 115.792 7.75 114 7.75ZM114 8.25C115.521 8.25 116.75 9.47852 116.75 11C116.75 12.5215 115.521 13.75 114 13.75C112.479 13.75 111.25 12.5215 111.25 11C111.25 9.47852 112.479 8.25 114 8.25ZM113 9.5V12.5H113.5V11.5H114.352L114.75 12.5H115.25L114.828 11.4375C115.219 11.3018 115.5 10.9375 115.5 10.5C115.5 9.94727 115.053 9.5 114.5 9.5H113ZM113.5 10H114.5C114.798 10 115 10.2021 115 10.5C115 10.7979 114.798 11 114.5 11H113.5V10Z" fill="white"/>
</g>
<defs>
<linearGradient id="paint0_linear_5_113" x1="88.1582" y1="15.0664" x2="111.608" y2="19.3169" gradientUnits="userSpaceOnUse">
<stop stop-color="#439DFE"/>
<stop offset="1" stop-color="#F687FF"/>
</linearGradient>
<clipPath id="clip0_5_113">
<rect width="8" height="8" fill="white" transform="translate(110 7)"/>
</clipPath>
</defs>
</svg>
